<svg xmlns="http://www.w3.org/2000/svg" width="40" height="40" viewBox="0 0 40 40" fill="none">
  <path d="M20 40C31.0457 40 40 31.0457 40 20C40 8.9543 31.0457 0 20 0C8.9543 0 0 8.9543 0 20C0 31.0457 8.9543 40 20 40Z" fill="#4169E1"/>
  <path d="M32.2957 28.8555C31.6751 28.9314 28.6398 28.8555 28.4822 28.8555C27.6976 28.8642 26.9406 28.6036 26.3755 28.1302C25.7355 27.5946 25.1633 27.0042 24.5378 26.4433C24.3528 26.2731 24.1526 26.1159 23.939 25.9731C23.4396 25.6379 22.945 25.7138 22.7099 26.2262C22.5262 26.7799 22.398 27.3464 22.3268 27.9193C22.2856 28.438 21.9074 28.7627 21.2383 28.7986C20.8238 28.8175 20.4092 28.8239 19.9995 28.8154C18.5063 28.8071 17.0367 28.4914 15.7108 27.894C14.2763 27.1988 13.0264 26.2482 12.0428 25.1044C10.4258 23.308 9.13364 21.3344 7.97965 19.2997C7.91905 19.1984 6.73597 17.0098 6.70688 16.9065C6.60021 16.5607 6.70688 16.2296 7.03417 16.1158C7.24266 16.0462 11.141 16.1158 11.2064 16.1158C11.4963 16.1136 11.7793 16.1917 12.0147 16.3388C12.2501 16.4859 12.4255 16.6943 12.5156 16.9339C13.2362 18.5387 14.2229 20.0433 15.4442 21.3997C15.6151 21.5811 15.8151 21.7402 16.0381 21.8721C16.3557 22.0597 16.6563 21.9944 16.7872 21.676C16.9424 21.2342 17.0336 20.7774 17.0588 20.316C17.0806 19.4009 17.0588 18.7978 17.0006 17.8848C16.9618 17.2987 16.7242 16.7842 15.7302 16.6197C15.4248 16.5733 15.3981 16.354 15.5945 16.1348C16.0042 15.6793 16.5642 15.6076 17.1921 15.5802C18.1279 15.5338 19.0637 15.5655 19.9995 15.5802H20.2031C20.6104 15.5789 21.0167 15.615 21.4153 15.6877C21.6509 15.7292 21.8648 15.8357 22.0252 15.9915C22.1855 16.1473 22.2837 16.344 22.305 16.5522C22.3529 16.7831 22.3732 17.0177 22.3656 17.2523C22.3414 18.2517 22.2856 19.2491 22.2735 20.2485C22.2623 20.6442 22.3038 21.0397 22.3971 21.4272C22.5305 21.9585 22.9499 22.0913 23.3669 21.7076C23.9068 21.2115 24.402 20.68 24.8481 20.1178C25.637 19.0931 26.2877 17.993 26.7876 16.839C27.0591 16.2465 27.2725 16.1158 27.9998 16.1158H32.1357C32.3816 16.112 32.6268 16.1405 32.863 16.2001C32.9466 16.2192 33.0247 16.2531 33.0926 16.2997C33.1604 16.3463 33.2165 16.4046 33.2572 16.4709C33.2979 16.5372 33.3225 16.6101 33.3293 16.6851C33.3362 16.76 33.3251 16.8354 33.2969 16.9065C33.0933 17.6951 32.6036 18.3677 32.0848 19.015C31.2435 20.0524 30.3562 21.0624 29.4956 22.0829C29.3867 22.2183 29.2872 22.3591 29.1974 22.5046C28.8725 23.0128 28.8968 23.2974 29.3671 23.7212C30.1186 24.3917 30.9211 25.0222 31.646 25.7138C32.1782 26.2166 32.6585 26.7592 33.0812 27.3353C33.6121 28.05 33.2848 28.7332 32.2957 28.8555Z" fill="white"/>
</svg>